<?xml version="1.0" standalone="no"?>
<!DOCTYPE svg PUBLIC "-//W3C//DTD SVG 20010904//EN"
        "http://www.w3.org/TR/2001/REC-SVG-20010904/DTD/svg10.dtd">
<svg version="1.0" xmlns="http://www.w3.org/2000/svg"
     width="128.000000pt" height="128.000000pt" viewBox="0 0 128.000000 128.000000"
     preserveAspectRatio="xMidYMid meet">

    <g transform="translate(0.000000,128.000000) scale(0.100000,-0.100000)"
       fill="#000000" stroke="none">
        <path d="M627 1253 c-3 -4 -42 -98 -87 -208 -45 -110 -83 -201 -84 -202 -1 -1
-100 -9 -221 -18 -120 -8 -221 -17 -223 -20 -10 -10 52 -67 193 -177 77 -61
141 -116 143 -124 2 -7 -20 -101 -47 -209 -55 -209 -59 -235 -37 -235 11 0
238 141 328 204 29 20 67 20 96 0 90 -63 317 -204 328 -204 22 0 18 26 -37
235 -27 108 -49 202 -47 209 2 8 66 63 143 124 141 110 203 167 193 177 -2 3
-103 12 -224 20 -120 9 -220 19 -222 23 -98 240 -171 407 -179 409 -6 2 -13 0
-16 -4z m102 -215 c46 -112 85 -205 87 -206 2 -3 366 -31 417 -32 10 0 16 -4
13 -9 -5 -8 -298 -241 -329 -262 -5 -3 16 -104 47 -224 31 -120 54 -220 52
-223 -3 -2 -85 48 -184 112 -98 64 -184 116 -192 116 -8 0 -94 -52 -192 -116
-99 -64 -181 -114 -184 -112 -2 3 21 103 51 223 31 119 55 218 53 219 -2 1
-77 60 -168 131 -91 71 -167 130 -169 132 -14 10 30 16 220 29 118 9 214 16
215 17 0 1 38 93 84 205 46 111 87 202 90 202 3 0 44 -91 89 -202z"/>
    </g>
</svg>
