<?xml version="1.0" encoding="UTF-8" standalone="no"?>
<svg id="Layer_1" data-name="Layer 1" xmlns="http://www.w3.org/2000/svg" viewBox="0 0 512 512">
    <defs>
        <style>.cls-1{fill:#fd3730;}.cls-2{fill:#d3241f;}.cls-3{fill:#d9e1e2;}.cls-4{fill:#eaeff0;}</style>
    </defs>
    <title>freehlglyg</title>
    <path class="cls-1"
          d="M480.641,228.773l-37.13-43.568a20.5,20.5,0,0,1-4.859-11.742l-4.557-57.057a41.8,41.8,0,0,0-38.5-38.5l-57.057-4.552a20.528,20.528,0,0,1-11.75-4.865L283.224,31.362v0a41.8,41.8,0,0,0-54.448,0L185.214,68.484a20.514,20.514,0,0,1-11.75,4.867L116.406,77.9a41.806,41.806,0,0,0-38.505,38.5l-4.547,57.055a20.523,20.523,0,0,1-4.87,11.747L31.359,228.773a41.8,41.8,0,0,0,0,54.453l37.13,43.568a20.5,20.5,0,0,1,4.859,11.742l4.557,57.057a41.8,41.8,0,0,0,38.5,38.5l57.057,4.552a20.528,20.528,0,0,1,11.75,4.865l43.563,37.128a41.8,41.8,0,0,0,54.448,0l43.563-37.122a20.514,20.514,0,0,1,11.75-4.867l57.057-4.552a41.806,41.806,0,0,0,38.505-38.5l4.547-57.055a20.523,20.523,0,0,1,4.87-11.747l37.125-43.565A41.8,41.8,0,0,0,480.641,228.773Z"/>
    <path class="cls-2"
          d="M228.776,31.362,185.214,68.484a20.514,20.514,0,0,1-11.75,4.867L116.406,77.9a41.806,41.806,0,0,0-38.505,38.5l-4.547,57.055a20.523,20.523,0,0,1-4.87,11.747L31.359,228.773a41.8,41.8,0,0,0,0,54.453l37.13,43.568a20.5,20.5,0,0,1,4.859,11.742l4.557,57.057a41.8,41.8,0,0,0,38.5,38.5l57.057,4.552a20.528,20.528,0,0,1,11.75,4.865l43.563,37.128A41.886,41.886,0,0,0,256,490.721V21.281A41.868,41.868,0,0,0,228.776,31.362Z"/>
    <path class="cls-3"
          d="M224,202.668H197.333a10.667,10.667,0,0,0-10.667,10.667v85.333a10.667,10.667,0,1,0,21.333,0V272.2l29.307,33.495a10.667,10.667,0,1,0,16.052-14.052l-22.5-25.714A32,32,0,0,0,224,202.668Zm0,42.667H208V224h16a10.667,10.667,0,1,1,0,21.333Z"/>
    <path class="cls-4"
          d="M314.667,224a10.667,10.667,0,0,0,0-21.333H277.333a10.667,10.667,0,0,0-10.667,10.667v85.333a10.667,10.667,0,0,0,10.667,10.667h37.333a10.667,10.667,0,0,0,0-21.333H288V266.668h21.333a10.667,10.667,0,1,0,0-21.333H288V224Z"/>
    <path class="cls-3"
          d="M165.333,202.668H128a10.667,10.667,0,0,0-10.667,10.667v85.333a10.667,10.667,0,0,0,21.333,0v-32H160a10.667,10.667,0,1,0,0-21.333H138.667V224h26.667a10.667,10.667,0,0,0,0-21.333Z"/>
    <path class="cls-4"
          d="M384,224a10.667,10.667,0,0,0,0-21.333H346.667A10.667,10.667,0,0,0,336,213.334v85.333a10.667,10.667,0,0,0,10.667,10.667H384A10.667,10.667,0,1,0,384,288H357.333V266.668h21.333a10.667,10.667,0,0,0,0-21.333H357.333V224Z"/>
</svg>