<?xml version="1.0" encoding="UTF-8"?>
<!DOCTYPE svg PUBLIC "-//W3C//DTD SVG 1.1//EN" "http://www.w3.org/Graphics/SVG/1.1/DTD/svg11.dtd">
<!-- Creator: CorelDRAW -->
<svg xmlns="http://www.w3.org/2000/svg" xml:space="preserve" width="1.70666in" height="1.70666in" version="1.1" style="shape-rendering:geometricPrecision; text-rendering:geometricPrecision; image-rendering:optimizeQuality; fill-rule:evenodd; clip-rule:evenodd"
viewBox="0 0 1706.66 1706.66"
 xmlns:xlink="http://www.w3.org/1999/xlink"
 xmlns:xodm="http://www.corel.com/coreldraw/odm/2003">
 <defs>
  <style type="text/css">
   <![CDATA[
    .fil3 {fill:#4A5254}
    .fil2 {fill:#CB313B}
    .fil1 {fill:#FA3C48}
    .fil4 {fill:#FF9621}
    .fil5 {fill:#FFA725}
    .fil0 {fill:#FFC3A1}
   ]]>
  </style>
 </defs>
 <g id="Layer_x0020_1">
  <metadata id="CorelCorpID_0Corel-Layer"/>
  <path class="fil0" d="M1080.1 1508.39c-44.66,0.09 -333.26,2.43 -341.56,-1.67 -25.18,-12.43 -53.06,-20.07 -53.06,-36.25l0 -350.28c0,-27.8 56.78,-13.32 100.28,-85 55.54,-91.51 7.41,-191.07 50.14,-220.97 37.13,-25.98 116.4,20.82 118.47,140.28 0.83,46.11 -1.11,98.47 -30.56,149.03 30.82,0 240.63,-2.55 252.58,1.74 53.66,12.22 60.13,86.21 19.4,113.31 22.13,30.08 14.49,80.38 -22.92,96.48 19.48,32.76 7.83,83.73 -34.98,94.68 28.11,48.38 -19.2,103.11 -57.8,98.65z"/>
  <path class="fil1" d="M664.8 1538.26l-199.72 0c-29.86,0 -54.03,-24.31 -54.03,-54.03l0 -376.81c0,-29.86 24.31,-54.03 54.03,-54.03l199.72 0c29.86,0 54.03,24.31 54.03,54.03l0 376.81c0,29.9 -24.25,54.03 -54.03,54.03z"/>
  <path class="fil2" d="M549.38 1053.39l33.33 0 0 242.36c0,22.12 -33.33,21.77 -33.33,0l0 -242.36z"/>
  <path class="fil3" d="M615.63 1486.03c-61.26,0 -61.26,-93.06 0,-93.06 61.29,0 61.19,93.06 0,93.06z"/>
  <path class="fil4" d="M654.52 813.68c-11.11,0 -19.49,-11.06 -15.97,-21.8l72.78 -222.36 -189.58 -137.22c-13.09,-9.57 -6.24,-30.15 9.72,-30.14l234.03 0.42 71.81 -222.64c4.94,-15.39 26.72,-15.22 31.67,0l71.81 222.64 234.03 -0.42c16.11,-0.02 22.74,20.78 9.72,30.14l-189.58 137.22 72.78 222.36c4.94,15.26 -12.8,28.09 -25.69,18.61l-188.63 -137.92 -189.02 137.92c-2.92,2.08 -6.39,3.19 -9.86,3.19z"/>
  <path class="fil5" d="M1317.98 807.29c-11.12,0 -19.48,-11.06 -15.97,-21.8l50.42 -154.17 -131.39 -95.14c-13.09,-9.57 -6.24,-30.15 9.72,-30.14l162.22 0.28 49.86 -154.31c4.95,-15.39 26.72,-15.22 31.67,0l49.86 154.31 162.35 -0.28c16.11,-0.02 22.74,20.78 9.72,30.14l-131.39 95.14 50.42 154.17c4.94,15.26 -12.79,28.08 -25.69,18.61l-130.97 -95.56 -130.97 95.56c-2.92,2.09 -6.39,3.2 -9.86,3.2z"/>
  <path class="fil5" d="M107.16 807.29c-11.12,0 -19.48,-11.06 -15.97,-21.8l50.42 -154.17 -131.39 -95.14c-13.15,-9.61 -6.18,-30.16 9.86,-30.14l162.22 0.28 49.86 -154.31c4.95,-15.39 26.72,-15.22 31.67,0l49.86 154.31 162.08 -0.28c16.11,-0.02 22.74,20.78 9.72,30.14l-131.39 95.14 50.42 154.17c4.94,15.26 -12.79,28.08 -25.69,18.61l-130.97 -95.56 -130.97 95.56c-2.92,2.09 -6.25,3.2 -9.72,3.2z"/>
 </g>
</svg>
